# xmcd
#
# Track frame offsets:
#  150
#  15123
#  29000
#
# Disc length: 533 seconds
#
# Revision: 0
# Processed by: cddbd v1.5.1PL2 Copyright (c) Steve Scherf et al.
# Submitted via: Collectorz.com_Music_Collector 6.11
#
DISCID=16021303
DTITLE=Hall, Terry - Sense
DYEAR=1994
DGENRE=Pop
TTITLE0=Sense
TTITLE1=God Only Knows
TTITLE2=This Guy's In Love With You
EXTD=
EXTT0=
EXTT1=
EXTT2=
PLAYORDER=
